<?xml version="1.0" encoding="UTF-8" standalone="no"?>
<!DOCTYPE svg PUBLIC "-//W3C//DTD SVG 1.1//EN" "http://www.w3.org/Graphics/SVG/1.1/DTD/svg11.dtd">
<svg xmlns="http://www.w3.org/2000/svg" version="1.1" viewBox="0.00 0.00 564.00 442.00">
<g stroke-width="2.00" fill="none" stroke-linecap="butt">
<path stroke="#022951" vector-effect="non-scaling-stroke" d="
  M 431.34 151.93
  L 426.66 157.20"
/>
<path stroke="#022951" vector-effect="non-scaling-stroke" d="
  M 337.57 291.54
  L 299.13 288.79"
/>
<path stroke="#022951" vector-effect="non-scaling-stroke" d="
  M 261.29 286.04
  L 231.80 285.02"
/>
<path stroke="#022951" vector-effect="non-scaling-stroke" d="
  M 83.80 347.49
  Q 85.21 354.45 87.68 360.32
  Q 92.49 371.75 100.49 383.24"
/>
<path stroke="#005779" vector-effect="non-scaling-stroke" d="
  M 100.49 383.24
  L 107.09 391.48"
/>
<path stroke="#022951" vector-effect="non-scaling-stroke" d="
  M 114.09 398.98
  Q 119.97 404.64 126.57 408.81"
/>
<path stroke="#022951" vector-effect="non-scaling-stroke" d="
  M 238.36 407.63
  Q 247.30 410.84 255.24 416.91"
/>
<path stroke="#005779" vector-effect="non-scaling-stroke" d="
  M 357.93 386.50
  L 366.11 387.77"
/>
<path stroke="#027fc9" vector-effect="non-scaling-stroke" d="
  M 505.85 311.67
  L 500.68 314.92"
/>
<path stroke="#022951" vector-effect="non-scaling-stroke" d="
  M 407.52 339.75
  L 399.73 340.41"
/>
<path stroke="#022951" vector-effect="non-scaling-stroke" d="
  M 336.76 337.51
  Q 332.46 335.82 328.74 336.48"
/>
<path stroke="#027fc9" vector-effect="non-scaling-stroke" d="
  M 328.74 336.48
  Q 327.48 336.48 323.21 334.99
  Q 319.64 333.73 306.37 332.22
  Q 281.59 329.38 256.65 329.35
  A 2.00 1.96 31.5 0 0 255.78 329.55
  L 254.93 329.97"
/>
<path stroke="#022951" vector-effect="non-scaling-stroke" d="
  M 254.93 329.97
  Q 255.01 329.94 254.94 329.71
  A 0.25 0.25 0.0 0 0 254.70 329.54
  Q 239.80 329.59 225.00 331.21
  Q 222.72 331.46 220.85 331.71"
/>
<path stroke="#027fc9" vector-effect="non-scaling-stroke" d="
  M 220.85 331.71
  Q 196.60 333.81 173.17 341.11"
/>
<path stroke="#022951" vector-effect="non-scaling-stroke" d="
  M 173.17 341.11
  Q 169.36 336.76 168.56 331.46
  Q 167.78 326.30 168.89 320.97
  A 0.57 0.57 0.0 0 1 169.62 320.55
  C 174.71 322.21 182.56 322.87 186.89 319.29
  C 191.90 315.15 193.12 306.27 191.52 300.72
  C 189.77 294.67 183.01 292.16 177.24 292.68
  C 170.00 293.33 163.15 296.54 158.40 301.98
  Q 151.04 310.40 153.23 323.26
  Q 155.32 335.55 162.09 344.49"
/>
<path stroke="#027fc9" vector-effect="non-scaling-stroke" d="
  M 162.09 344.49
  Q 156.58 346.73 151.22 349.00
  Q 128.63 358.57 110.08 374.59
  Q 105.32 378.70 100.49 383.24"
/>
<path stroke="#022951" vector-effect="non-scaling-stroke" d="
  M 426.16 285.67
  L 433.12 284.22"
/>
<path stroke="#022951" vector-effect="non-scaling-stroke" d="
  M 439.65 186.67
  Q 436.09 190.69 434.46 195.02"
/>
<path stroke="#005779" vector-effect="non-scaling-stroke" d="
  M 173.17 341.11
  C 185.55 353.37 204.80 349.19 215.87 337.58
  Q 218.21 335.12 220.85 331.71"
/>
<path stroke="#005779" vector-effect="non-scaling-stroke" d="
  M 254.93 329.97
  Q 247.34 341.32 234.54 346.55
  Q 227.11 349.59 219.45 352.68"
/>
<path stroke="#005779" vector-effect="non-scaling-stroke" d="
  M 181.50 356.44
  Q 169.57 353.46 162.09 344.49"
/>
<path stroke="#005779" vector-effect="non-scaling-stroke" d="
  M 316.73 373.47
  Q 301.62 367.68 285.99 363.63"
/>
<path stroke="#005779" vector-effect="non-scaling-stroke" d="
  M 328.74 336.48
  Q 332.85 338.40 336.72 338.70"
/>
<path stroke="#005779" vector-effect="non-scaling-stroke" d="
  M 392.60 350.44
  L 399.78 351.24"
/>
<path stroke="#022951" vector-effect="non-scaling-stroke" d="
  M 259.65 414.91
  L 250.52 400.27"
/>
</g>
<path fill="#000000" d="
  M 227.66 0.00
  Q 244.45 1.01 251.03 1.92
  C 306.36 9.62 356.06 37.30 391.70 80.29
  Q 418.15 112.19 431.34 151.93
  L 426.66 157.20
  Q 423.79 149.68 421.12 142.77
  Q 408.02 108.87 384.76 81.75
  Q 361.77 54.93 331.45 36.62
  A 0.22 0.21 -6.0 0 0 331.18 36.95
  C 347.82 54.16 353.03 77.12 346.96 100.50
  Q 342.64 117.16 331.99 130.72
  C 321.31 144.33 306.40 154.58 289.27 155.33
  C 281.08 155.69 270.32 153.33 263.43 147.59
  Q 257.77 142.89 253.88 138.65
  C 248.91 133.26 244.06 125.88 242.82 118.86
  C 241.64 112.19 242.55 105.47 246.11 99.36
  C 251.57 90.00 259.97 83.32 269.33 78.06
  A 2.95 2.91 -56.7 0 1 271.06 77.69
  Q 272.45 77.82 275.08 78.56
  C 284.67 81.26 293.11 88.83 294.56 98.98
  A 0.79 0.78 -5.2 0 1 293.81 99.88
  Q 281.82 100.28 273.55 108.57
  C 267.76 114.37 266.67 124.68 268.02 132.17
  Q 269.63 141.16 277.68 144.50
  Q 285.68 147.81 292.05 145.74
  C 314.70 138.36 330.10 118.65 334.48 95.21
  C 336.30 85.49 337.30 74.82 334.86 64.39
  C 328.47 37.00 300.85 27.87 275.73 27.59
  Q 270.25 27.53 265.01 29.16
  Q 245.76 35.14 230.75 44.64
  C 222.38 49.95 214.06 57.23 208.25 65.07
  Q 191.29 87.94 195.02 117.57
  Q 197.20 134.92 206.09 151.64
  Q 216.32 170.89 231.40 182.84
  Q 236.43 186.83 242.09 189.38
  Q 253.96 194.72 265.87 202.64
  Q 285.47 215.65 304.88 232.92
  Q 310.36 237.79 314.12 243.03
  C 324.88 258.02 333.38 273.71 337.57 291.54
  L 299.13 288.79
  Q 296.46 270.72 288.97 255.54
  Q 280.18 237.74 265.52 222.97
  C 248.87 206.19 229.23 194.13 208.63 183.05
  Q 198.12 177.41 193.91 173.79
  C 183.71 165.03 177.00 153.75 171.96 141.29
  Q 167.26 129.68 164.41 118.06
  C 156.65 86.39 176.81 54.16 200.68 34.86
  Q 216.53 22.04 235.58 15.59
  Q 248.74 11.14 262.39 10.58
  A 0.07 0.07 0.0 0 0 262.41 10.44
  Q 259.69 9.59 257.25 9.25
  C 243.95 7.39 231.71 6.12 218.53 6.34
  Q 159.47 7.32 109.64 37.65
  Q 65.12 64.74 37.58 109.89
  Q 22.93 133.90 15.11 160.88
  Q 7.30 187.80 6.68 216.00
  Q 5.64 263.45 24.45 306.78
  Q 46.36 357.23 93.22 393.36
  A 0.30 0.29 -50.6 0 0 93.63 393.31
  A 0.16 0.16 0.0 0 0 93.62 393.10
  C 75.72 376.95 60.74 357.14 55.85 333.19
  C 51.94 313.99 55.98 294.25 66.05 277.79
  C 88.06 241.79 132.30 222.62 173.00 221.27
  C 197.61 220.45 221.00 228.38 238.73 245.46
  Q 253.38 259.56 259.85 279.64
  Q 260.59 281.94 261.29 286.04
  L 231.80 285.02
  C 229.08 264.72 218.25 247.31 199.94 237.96
  C 183.43 229.52 161.68 230.00 144.08 235.88
  C 112.25 246.49 87.19 272.88 81.68 306.18
  Q 79.44 319.69 81.38 334.99
  Q 82.35 342.72 83.80 347.49
  Q 85.21 354.45 87.68 360.32
  Q 92.49 371.75 100.49 383.24
  L 107.09 391.48
  L 114.09 398.98
  Q 119.97 404.64 126.57 408.81
  Q 143.09 419.61 162.31 422.52
  Q 179.23 425.09 195.52 422.52
  Q 217.79 419.01 238.36 407.63
  Q 247.30 410.84 255.24 416.91
  Q 224.77 430.11 192.30 433.30
  A 0.14 0.13 -43.6 0 0 192.29 433.57
  Q 252.92 441.36 308.27 417.25
  Q 334.35 405.88 357.93 386.50
  L 366.11 387.77
  Q 349.28 402.45 331.80 412.35
  Q 264.66 450.38 187.89 439.29
  Q 152.98 434.25 120.02 417.27
  Q 72.97 393.03 41.82 349.77
  Q 10.38 306.10 2.58 252.96
  C -1.43 225.57 -0.18 196.17 6.51 168.68
  Q 18.63 118.89 51.89 79.13
  Q 79.69 45.89 117.73 25.75
  Q 152.31 7.44 191.26 1.97
  Q 198.17 1.00 214.91 0.00
  L 227.66 0.00
  Z"
/>
<path fill="#0451a1" d="
  M 564.00 211.90
  L 564.00 218.13
  Q 563.12 234.16 558.91 246.16
  Q 550.25 270.83 532.10 289.61
  Q 519.97 302.15 505.85 311.67
  L 500.68 314.92
  Q 473.57 327.78 443.73 334.19
  Q 424.46 338.33 407.52 339.75
  L 399.73 340.41
  Q 394.59 340.59 389.50 340.72
  C 371.76 341.19 357.36 339.91 336.76 337.51
  Q 332.46 335.82 328.74 336.48
  Q 327.48 336.48 323.21 334.99
  Q 319.64 333.73 306.37 332.22
  Q 281.59 329.38 256.65 329.35
  A 2.00 1.96 31.5 0 0 255.78 329.55
  L 254.93 329.97
  Q 255.01 329.94 254.94 329.71
  A 0.25 0.25 0.0 0 0 254.70 329.54
  Q 239.80 329.59 225.00 331.21
  Q 222.72 331.46 220.85 331.71
  Q 196.60 333.81 173.17 341.11
  Q 169.36 336.76 168.56 331.46
  Q 167.78 326.30 168.89 320.97
  A 0.57 0.57 0.0 0 1 169.62 320.55
  C 174.71 322.21 182.56 322.87 186.89 319.29
  C 191.90 315.15 193.12 306.27 191.52 300.72
  C 189.77 294.67 183.01 292.16 177.24 292.68
  C 170.00 293.33 163.15 296.54 158.40 301.98
  Q 151.04 310.40 153.23 323.26
  Q 155.32 335.55 162.09 344.49
  Q 156.58 346.73 151.22 349.00
  Q 128.63 358.57 110.08 374.59
  Q 105.32 378.70 100.49 383.24
  Q 92.49 371.75 87.68 360.32
  Q 85.21 354.45 83.80 347.49
  Q 88.88 338.80 92.41 333.89
  Q 110.93 308.10 139.79 296.62
  Q 150.32 292.43 167.16 289.57
  C 189.33 285.82 208.62 284.92 231.80 285.02
  L 261.29 286.04
  L 299.13 288.79
  L 337.57 291.54
  Q 349.11 292.19 369.32 292.30
  Q 394.03 292.44 418.31 287.86
  Q 422.55 287.07 426.16 285.67
  L 433.12 284.22
  C 450.98 279.30 468.38 272.47 484.08 262.60
  Q 496.54 254.77 505.30 244.03
  C 516.35 230.50 521.11 210.28 512.76 194.23
  Q 507.19 183.51 499.59 177.68
  Q 482.69 164.69 461.67 171.15
  Q 448.18 175.30 439.65 186.67
  Q 436.09 190.69 434.46 195.02
  Q 428.05 208.38 431.23 222.75
  Q 432.26 227.38 433.89 232.32
  A 0.20 0.20 0.0 0 1 433.56 232.52
  C 420.41 219.33 410.86 200.26 414.83 181.22
  Q 417.62 167.86 426.66 157.20
  L 431.34 151.93
  C 437.63 146.02 444.37 140.00 452.24 136.58
  Q 473.16 127.48 495.73 132.05
  Q 519.70 136.90 537.62 153.36
  Q 552.81 167.31 558.94 184.81
  Q 563.04 196.54 564.00 211.90
  Z"
/>
<path fill="#000000" d="
  M 439.65 186.67
  Q 447.32 236.47 433.12 284.22
  L 426.16 285.67
  C 435.10 256.17 438.36 225.72 434.46 195.02
  Q 436.09 190.69 439.65 186.67
  Z"
/>
<path fill="#000000" d="
  M 173.17 341.11
  C 185.55 353.37 204.80 349.19 215.87 337.58
  Q 218.21 335.12 220.85 331.71
  Q 222.72 331.46 225.00 331.21
  Q 239.80 329.59 254.70 329.54
  A 0.25 0.25 0.0 0 1 254.94 329.71
  Q 255.01 329.94 254.93 329.97
  Q 247.34 341.32 234.54 346.55
  Q 227.11 349.59 219.45 352.68
  Q 213.40 354.13 207.10 355.56
  Q 194.25 358.50 181.50 356.44
  Q 169.57 353.46 162.09 344.49
  Q 155.32 335.55 153.23 323.26
  Q 151.04 310.40 158.40 301.98
  C 163.15 296.54 170.00 293.33 177.24 292.68
  C 183.01 292.16 189.77 294.67 191.52 300.72
  C 193.12 306.27 191.90 315.15 186.89 319.29
  C 182.56 322.87 174.71 322.21 169.62 320.55
  A 0.57 0.57 0.0 0 0 168.89 320.97
  Q 167.78 326.30 168.56 331.46
  Q 169.36 336.76 173.17 341.11
  Z"
/>
<path fill="#00adf1" d="
  M 505.85 311.67
  Q 504.66 340.39 485.81 360.05
  C 468.04 378.56 441.05 386.74 415.81 389.30
  Q 390.77 391.83 366.11 387.77
  L 357.93 386.50
  Q 340.90 383.03 324.79 376.26
  C 322.06 375.12 319.49 374.34 316.73 373.47
  Q 301.62 367.68 285.99 363.63
  Q 253.56 353.62 219.45 352.68
  Q 227.11 349.59 234.54 346.55
  Q 247.34 341.32 254.93 329.97
  L 255.78 329.55
  A 2.00 1.96 31.5 0 1 256.65 329.35
  Q 281.59 329.38 306.37 332.22
  Q 319.64 333.73 323.21 334.99
  Q 327.48 336.48 328.74 336.48
  Q 332.85 338.40 336.72 338.70
  Q 342.45 340.69 348.41 341.87
  C 350.30 342.24 352.18 342.95 354.11 343.40
  Q 373.31 347.81 392.60 350.44
  L 399.78 351.24
  Q 418.70 352.99 437.21 351.47
  C 444.70 350.85 450.92 349.39 458.01 347.50
  C 476.11 342.67 491.92 332.02 500.68 314.92
  L 505.85 311.67
  Z"
/>
<path fill="#00adf1" d="
  M 220.85 331.71
  Q 218.21 335.12 215.87 337.58
  C 204.80 349.19 185.55 353.37 173.17 341.11
  Q 196.60 333.81 220.85 331.71
  Z"
/>
<path fill="#000000" d="
  M 336.76 337.51
  Q 336.32 337.94 336.40 338.24
  Q 336.47 338.50 336.72 338.70
  Q 332.85 338.40 328.74 336.48
  Q 332.46 335.82 336.76 337.51
  Z"
/>
<path fill="#000000" d="
  M 407.52 339.75
  L 399.78 351.24
  L 392.60 350.44
  L 399.73 340.41
  L 407.52 339.75
  Z"
/>
<path fill="#00adf1" d="
  M 162.09 344.49
  Q 169.57 353.46 181.50 356.44
  Q 164.62 360.26 150.71 365.73
  Q 127.56 374.83 107.09 391.48
  L 100.49 383.24
  Q 105.32 378.70 110.08 374.59
  Q 128.63 358.57 151.22 349.00
  Q 156.58 346.73 162.09 344.49
  Z"
/>
<path fill="#000000" d="
  M 285.99 363.63
  Q 301.62 367.68 316.73 373.47
  C 300.97 391.49 281.49 404.99 259.65 414.91
  L 250.52 400.27
  C 264.84 390.17 276.67 378.46 285.99 363.63
  Z"
/>
<path fill="#0451a1" d="
  M 250.52 400.27
  L 259.65 414.91
  L 262.25 421.50
  A 0.42 0.42 0.0 0 1 261.60 421.99
  L 255.24 416.91
  Q 247.30 410.84 238.36 407.63
  C 218.66 399.61 197.75 396.92 176.53 398.19
  Q 162.40 399.04 152.01 401.04
  Q 140.28 403.31 126.57 408.81
  Q 119.97 404.64 114.09 398.98
  Q 133.77 384.67 153.57 377.82
  Q 163.56 374.37 178.49 372.47
  Q 202.20 369.46 222.44 378.07
  Q 238.64 384.97 250.52 400.27
  Z"
/>
</svg>
